<svg width="16" height="15" viewBox="0 0 16 15" fill="none" xmlns="http://www.w3.org/2000/svg">
<path id="Star 22" d="M7.49517 0.785975C7.73131 0.418317 8.26869 0.418317 8.50483 0.785975L10.601 4.04946C10.6822 4.17596 10.808 4.26735 10.9534 4.30553L14.7049 5.29062C15.1276 5.4016 15.2936 5.91267 15.0169 6.25087L12.5609 9.2529C12.4657 9.36927 12.4177 9.51713 12.4263 9.66723L12.6487 13.5395C12.6738 13.9758 12.239 14.2916 11.8319 14.133L8.21783 12.7249C8.07774 12.6703 7.92226 12.6703 7.78217 12.7249L4.16812 14.133C3.76097 14.2916 3.32623 13.9758 3.35128 13.5395L3.57369 9.66723C3.58231 9.51713 3.53427 9.36927 3.43907 9.2529L0.983052 6.25087C0.706362 5.91267 0.87242 5.4016 1.29506 5.29062L5.04657 4.30553C5.19198 4.26735 5.31776 4.17596 5.39902 4.04946L7.49517 0.785975Z" fill="#BCBCBC"/>
</svg>
