<svg width="35" height="12" viewBox="0 0 35 12" fill="none" xmlns="http://www.w3.org/2000/svg">
<g id="g4158">
<path id="polygon9" d="M15.1673 11.1639H12.332L14.1054 0.198792H16.9405L15.1673 11.1639Z" fill="#00579F"/>
<path id="path11" d="M25.4444 0.46683C24.8852 0.244966 23.9982 0 22.9014 0C20.1015 0 18.1299 1.49305 18.1178 3.62766C18.0945 5.20257 19.5294 6.07732 20.6026 6.60244C21.6995 7.13904 22.0724 7.48928 22.0724 7.96758C22.0612 8.70217 21.186 9.04078 20.3697 9.04078C19.2378 9.04078 18.6313 8.8662 17.7095 8.45751L17.3362 8.28232L16.9395 10.7438C17.6044 11.0467 18.8296 11.3155 20.1015 11.3273C23.0765 11.3273 25.0132 9.85738 25.0362 7.58262C25.0475 6.33438 24.2898 5.37792 22.6563 4.59636C21.6647 4.09465 21.0574 3.75635 21.0574 3.243C21.069 2.77633 21.571 2.29834 22.6904 2.29834C23.6121 2.27492 24.2894 2.49648 24.8024 2.71819L25.0588 2.83462L25.4444 0.46683Z" fill="#00579F"/>
<path id="path13" d="M29.2128 7.27938C29.4463 6.64945 30.3447 4.21142 30.3447 4.21142C30.3329 4.23483 30.5777 3.56986 30.7177 3.16163L30.9159 4.10646C30.9159 4.10646 31.4528 6.73115 31.5694 7.27938C31.1263 7.27938 29.7728 7.27938 29.2128 7.27938ZM32.7125 0.198792H30.5195C29.8432 0.198792 29.3294 0.396935 29.0376 1.10857L24.8262 11.1638H27.8011C27.8011 11.1638 28.2909 9.81043 28.3962 9.51896C28.7225 9.51896 31.6165 9.51896 32.0364 9.51896C32.1178 9.90392 32.3747 11.1638 32.3747 11.1638H34.9998L32.7125 0.198792Z" fill="#00579F"/>
<path id="path15" d="M9.96286 0.198792L7.18622 7.67598L6.8828 6.15952C6.36946 4.40972 4.75951 2.5086 2.96289 1.56331L5.50619 11.1523H8.50438L12.9609 0.198792H9.96286Z" fill="#00579F"/>
<path id="path17" d="M4.6083 0.198792H0.0466673L0 0.420346C3.55836 1.33028 5.91499 3.52366 6.88322 6.15998L5.89158 1.12051C5.72832 0.420191 5.2266 0.221893 4.6083 0.198792Z" fill="#FAA61A"/>
</g>
</svg>
