<svg width="20" height="13" viewBox="0 0 20 13" fill="none" xmlns="http://www.w3.org/2000/svg">
<path d="M2.37045 12.0833L2.18182 12.0686C1.62034 12.0336 1.09392 11.8284 0.702727 11.492C0.298813 11.173 0.0576878 10.7374 0.0290909 10.275L0 9.79694V2.05681L0.0222727 1.79891C0.0622338 1.3417 0.302733 0.91256 0.698182 0.592839C1.08613 0.261906 1.60354 0.0568977 2.15727 0.0147266L2.32818 0H17.6968L17.8477 0.0147266C18.4042 0.0561846 18.924 0.263226 19.3114 0.597747C19.7061 0.925399 19.9449 1.36061 19.9836 1.82307L20 1.99904V10.1511L19.9864 10.2697C19.9398 10.7332 19.6954 11.1676 19.2973 11.4946C18.9085 11.8271 18.3872 12.0304 17.8309 12.0663L17.5841 12.0833H2.37045ZM2.40909 0.810716C2.33458 0.810642 2.26015 0.814933 2.18636 0.823555C1.84991 0.8617 1.54166 1.00026 1.31917 1.21337C1.09667 1.42648 0.975147 1.69958 0.977273 1.98167V3.5676C0.977273 5.74965 0.977273 7.9317 0.977273 10.1137C0.975585 10.2875 1.02225 10.4593 1.11363 10.6157C1.20502 10.772 1.33864 10.9087 1.50409 11.0151C1.76993 11.192 2.10371 11.2833 2.44409 11.2722C4.38348 11.2722 6.32288 11.2722 8.26227 11.2722H17.6041C17.6812 11.273 17.7583 11.2687 17.8345 11.2594C18.1637 11.2153 18.4636 11.0761 18.6812 10.8662C18.8988 10.6563 19.0201 10.3892 19.0236 10.1122C19.0236 9.01719 19.0236 7.92214 19.0236 6.82708C19.0236 5.20213 19.0236 3.5773 19.0236 1.95259C19.023 1.87536 19.0124 1.7984 18.9923 1.72301C18.9196 1.46218 18.7423 1.22962 18.4896 1.0635C18.2369 0.897389 17.9236 0.807584 17.6014 0.808828C12.5365 0.811094 7.47242 0.811723 2.40909 0.810716ZM4.93864 9.82866H3.24273C3.12895 9.83148 3.01725 9.80287 2.92513 9.74732C2.83301 9.69177 2.76566 9.61241 2.73364 9.52167C2.71727 9.46778 2.71454 9.41166 2.72562 9.35685C2.7367 9.30205 2.76134 9.24975 2.798 9.20326C2.83465 9.15677 2.88252 9.1171 2.93857 9.08676C2.99462 9.05642 3.05764 9.03608 3.12364 9.02701C3.18955 9.02172 3.25636 9.01908 3.32227 9.0187H4.14273C4.71091 9.0187 5.29818 9.0187 5.87636 9.01568C6.0049 9.00933 6.1315 9.04397 6.23033 9.11253C6.32917 9.18109 6.39278 9.2784 6.40818 9.3846C6.41675 9.44019 6.40976 9.49667 6.38776 9.54965C6.36577 9.60264 6.32936 9.65069 6.28136 9.69008C6.2312 9.73658 6.16906 9.77308 6.09958 9.79688C6.03009 9.82067 5.95503 9.83115 5.88 9.82753H4.93818L4.93864 9.82866ZM3.25682 3.6284C3.15199 3.6352 3.04725 3.61438 2.95749 3.56889C2.86772 3.52341 2.79751 3.45557 2.75682 3.37503C2.72576 3.31955 2.7114 3.25864 2.71496 3.19753C2.71853 3.13643 2.73991 3.07695 2.77727 3.02423C2.81382 2.96957 2.86563 2.92299 2.92836 2.88843C2.99109 2.85386 3.06289 2.83232 3.13773 2.82561C3.195 2.82108 3.25091 2.81881 3.30455 2.81881H11C12.9127 2.81881 14.8253 2.81881 16.7377 2.81881C16.8078 2.8178 16.8777 2.82492 16.9455 2.83996C17.0464 2.87142 17.1329 2.92846 17.1927 3.003C17.2525 3.07754 17.2826 3.16581 17.2786 3.25533C17.2665 3.34772 17.2171 3.43398 17.1384 3.50007C17.0598 3.56617 16.9565 3.6082 16.8455 3.61934C16.7827 3.62424 16.7232 3.62651 16.6673 3.62651H3.25773L3.25682 3.6284Z" fill="#BC6123"/>
</svg>
